<svg width="36" height="36" viewBox="0 0 36 36" fill="none" xmlns="http://www.w3.org/2000/svg">
<path d="M18 35C8.61116 35 1 27.3888 1 18C1 8.61116 8.61116 1 18 1C27.3888 1 35 8.61116 35 18C35 27.3888 27.3888 35 18 35Z" fill="white"/>
<path d="M18 35C8.61116 35 1 27.3888 1 18C1 8.61116 8.61116 1 18 1C27.3888 1 35 8.61116 35 18C35 27.3888 27.3888 35 18 35Z" stroke="#EAEAFD" stroke-width="2"/>
<path d="M17.3438 16.6484V18.3711C17.3438 19.1185 17.264 19.7633 17.1045 20.3057C16.945 20.8434 16.7148 21.2855 16.4141 21.6318C16.1178 21.9736 15.7646 22.2266 15.3545 22.3906C14.9443 22.5547 14.4886 22.6367 13.9873 22.6367C13.5863 22.6367 13.2126 22.5866 12.8662 22.4863C12.5199 22.3815 12.2077 22.2197 11.9297 22.001C11.6562 21.7822 11.4193 21.5065 11.2188 21.1738C11.0228 20.8366 10.8724 20.4355 10.7676 19.9707C10.6628 19.5059 10.6104 18.9727 10.6104 18.3711V16.6484C10.6104 15.901 10.6901 15.2607 10.8496 14.7275C11.0137 14.1898 11.2438 13.75 11.54 13.4082C11.8408 13.0664 12.1963 12.8158 12.6064 12.6562C13.0166 12.4922 13.4723 12.4102 13.9736 12.4102C14.3747 12.4102 14.7461 12.4626 15.0879 12.5674C15.4342 12.6676 15.7464 12.8249 16.0244 13.0391C16.3024 13.2533 16.5394 13.529 16.7354 13.8662C16.9313 14.1989 17.0817 14.5977 17.1865 15.0625C17.2913 15.5228 17.3438 16.0514 17.3438 16.6484ZM15.3682 18.6309V16.3818C15.3682 16.0218 15.3477 15.7074 15.3066 15.4385C15.2702 15.1696 15.2132 14.9417 15.1357 14.7549C15.0583 14.5635 14.9626 14.4085 14.8486 14.29C14.7347 14.1715 14.6048 14.085 14.459 14.0303C14.3132 13.9756 14.1514 13.9482 13.9736 13.9482C13.7503 13.9482 13.5521 13.9915 13.3789 14.0781C13.2103 14.1647 13.0667 14.3037 12.9482 14.4951C12.8298 14.682 12.7386 14.9326 12.6748 15.2471C12.6156 15.557 12.5859 15.9352 12.5859 16.3818V18.6309C12.5859 18.9909 12.6042 19.3076 12.6406 19.5811C12.6816 19.8545 12.7409 20.0892 12.8184 20.2852C12.9004 20.4766 12.9961 20.6338 13.1055 20.7568C13.2194 20.8753 13.3493 20.9619 13.4951 21.0166C13.6455 21.0713 13.8096 21.0986 13.9873 21.0986C14.2061 21.0986 14.3997 21.0553 14.5684 20.9688C14.7415 20.8776 14.8874 20.7363 15.0059 20.5449C15.1289 20.349 15.2201 20.0938 15.2793 19.7793C15.3385 19.4648 15.3682 19.082 15.3682 18.6309ZM23.4824 12.5264V22.5H21.5137V14.7959L19.1484 15.5479V13.9961L23.2705 12.5264H23.4824Z" fill="#A7A6F7"/>
</svg>
