<svg width="36" height="36" viewBox="0 0 36 36" fill="none" xmlns="http://www.w3.org/2000/svg">
<path d="M18 35C8.61116 35 1 27.3888 1 18C1 8.61116 8.61116 1 18 1C27.3888 1 35 8.61116 35 18C35 27.3888 27.3888 35 18 35Z" fill="white"/>
<path d="M18 35C8.61116 35 1 27.3888 1 18C1 8.61116 8.61116 1 18 1C27.3888 1 35 8.61116 35 18C35 27.3888 27.3888 35 18 35Z" stroke="#EAEAFD" stroke-width="2"/>
<path d="M17.3438 16.6484V18.3711C17.3438 19.1185 17.264 19.7633 17.1045 20.3057C16.945 20.8434 16.7148 21.2855 16.4141 21.6318C16.1178 21.9736 15.7646 22.2266 15.3545 22.3906C14.9443 22.5547 14.4886 22.6367 13.9873 22.6367C13.5863 22.6367 13.2126 22.5866 12.8662 22.4863C12.5199 22.3815 12.2077 22.2197 11.9297 22.001C11.6562 21.7822 11.4193 21.5065 11.2188 21.1738C11.0228 20.8366 10.8724 20.4355 10.7676 19.9707C10.6628 19.5059 10.6104 18.9727 10.6104 18.3711V16.6484C10.6104 15.901 10.6901 15.2607 10.8496 14.7275C11.0137 14.1898 11.2438 13.75 11.54 13.4082C11.8408 13.0664 12.1963 12.8158 12.6064 12.6562C13.0166 12.4922 13.4723 12.4102 13.9736 12.4102C14.3747 12.4102 14.7461 12.4626 15.0879 12.5674C15.4342 12.6676 15.7464 12.8249 16.0244 13.0391C16.3024 13.2533 16.5394 13.529 16.7354 13.8662C16.9313 14.1989 17.0817 14.5977 17.1865 15.0625C17.2913 15.5228 17.3438 16.0514 17.3438 16.6484ZM15.3682 18.6309V16.3818C15.3682 16.0218 15.3477 15.7074 15.3066 15.4385C15.2702 15.1696 15.2132 14.9417 15.1357 14.7549C15.0583 14.5635 14.9626 14.4085 14.8486 14.29C14.7347 14.1715 14.6048 14.085 14.459 14.0303C14.3132 13.9756 14.1514 13.9482 13.9736 13.9482C13.7503 13.9482 13.5521 13.9915 13.3789 14.0781C13.2103 14.1647 13.0667 14.3037 12.9482 14.4951C12.8298 14.682 12.7386 14.9326 12.6748 15.2471C12.6156 15.557 12.5859 15.9352 12.5859 16.3818V18.6309C12.5859 18.9909 12.6042 19.3076 12.6406 19.5811C12.6816 19.8545 12.7409 20.0892 12.8184 20.2852C12.9004 20.4766 12.9961 20.6338 13.1055 20.7568C13.2194 20.8753 13.3493 20.9619 13.4951 21.0166C13.6455 21.0713 13.8096 21.0986 13.9873 21.0986C14.2061 21.0986 14.3997 21.0553 14.5684 20.9688C14.7415 20.8776 14.8874 20.7363 15.0059 20.5449C15.1289 20.349 15.2201 20.0938 15.2793 19.7793C15.3385 19.4648 15.3682 19.082 15.3682 18.6309ZM20.7002 16.6689H21.7529C22.0902 16.6689 22.3682 16.612 22.5869 16.498C22.8057 16.3796 22.9674 16.2155 23.0723 16.0059C23.1816 15.7917 23.2363 15.5433 23.2363 15.2607C23.2363 15.0055 23.1862 14.7799 23.0859 14.584C22.9902 14.3835 22.8421 14.2285 22.6416 14.1191C22.4411 14.0052 22.1882 13.9482 21.8828 13.9482C21.6413 13.9482 21.418 13.9961 21.2129 14.0918C21.0078 14.1875 20.8438 14.3219 20.7207 14.4951C20.5977 14.6683 20.5361 14.8779 20.5361 15.124H18.5605C18.5605 14.5771 18.7064 14.1009 18.998 13.6953C19.2943 13.2897 19.6908 12.973 20.1875 12.7451C20.6842 12.5173 21.2311 12.4033 21.8281 12.4033C22.5026 12.4033 23.0928 12.5127 23.5986 12.7314C24.1045 12.9456 24.4987 13.2624 24.7812 13.6816C25.0638 14.1009 25.2051 14.6204 25.2051 15.2402C25.2051 15.5547 25.1322 15.86 24.9863 16.1562C24.8405 16.4479 24.6309 16.7122 24.3574 16.9492C24.0885 17.1816 23.7604 17.3685 23.373 17.5098C22.9857 17.6465 22.5505 17.7148 22.0674 17.7148H20.7002V16.6689ZM20.7002 18.166V17.1475H22.0674C22.6097 17.1475 23.0859 17.209 23.4961 17.332C23.9062 17.4551 24.2503 17.6328 24.5283 17.8652C24.8063 18.0931 25.016 18.3643 25.1572 18.6787C25.2985 18.9886 25.3691 19.3327 25.3691 19.7109C25.3691 20.1758 25.2803 20.5905 25.1025 20.9551C24.9248 21.3151 24.6742 21.6204 24.3506 21.8711C24.0316 22.1217 23.6579 22.3132 23.2295 22.4453C22.8011 22.5729 22.334 22.6367 21.8281 22.6367C21.4089 22.6367 20.9964 22.5798 20.5908 22.4658C20.1898 22.3473 19.8252 22.1719 19.4971 21.9395C19.1735 21.7025 18.9137 21.4062 18.7178 21.0508C18.5264 20.6908 18.4307 20.2646 18.4307 19.7725H20.4062C20.4062 20.0277 20.4701 20.2555 20.5977 20.4561C20.7253 20.6566 20.9007 20.8138 21.124 20.9277C21.3519 21.0417 21.6048 21.0986 21.8828 21.0986C22.1973 21.0986 22.4661 21.0417 22.6895 20.9277C22.9173 20.8092 23.0905 20.6452 23.209 20.4355C23.332 20.2214 23.3936 19.973 23.3936 19.6904C23.3936 19.3258 23.3275 19.0342 23.1953 18.8154C23.0632 18.5921 22.874 18.4281 22.6279 18.3232C22.3818 18.2184 22.0902 18.166 21.7529 18.166H20.7002Z" fill="#A7A6F7"/>
</svg>
