<svg id="Immunization_Schedule" viewBox="0 0 64 64" xmlns="http://www.w3.org/2000/svg" data-name="Immunization Schedule"><rect fill="#dceaf1" height="50" rx="5" width="46" x="2" y="10"/><rect fill="#c4dce8" height="42" rx="2" width="38" x="6" y="14"/><rect fill="#79cbca" height="10" rx="1" width="10" x="12" y="24"/><rect fill="#79cbca" height="10" rx="1" width="10" x="12" y="39"/><path d="m18 31c-.26 0-.52-.1-.71-.29l-2-2c-.39-.39-.39-1.02 0-1.41s1.02-.39 1.41 0l1.23 1.23 4.3-5.16c.35-.42.98-.48 1.41-.13.42.35.48.98.13 1.41l-5 6c-.18.22-.44.35-.72.36-.02 0-.03 0-.05 0z" fill="#62a6a6"/><path d="m18 46c-.26 0-.52-.1-.71-.29l-2-2c-.39-.39-.39-1.02 0-1.41s1.02-.39 1.41 0l1.23 1.23 4.3-5.16c.35-.42.98-.48 1.41-.13.42.35.48.98.13 1.41l-5 6c-.18.22-.44.35-.72.36-.02 0-.03 0-.05 0z" fill="#62a6a6"/><path d="m37 28h-11c-.55 0-1-.45-1-1s.45-1 1-1h11c.55 0 1 .45 1 1s-.45 1-1 1z" fill="#79cbca"/><path d="m30 32h-4c-.55 0-1-.45-1-1s.45-1 1-1h4c.55 0 1 .45 1 1s-.45 1-1 1z" fill="#79cbca"/><path d="m37 43h-11c-.55 0-1-.45-1-1s.45-1 1-1h11c.55 0 1 .45 1 1s-.45 1-1 1z" fill="#79cbca"/><path d="m30 47h-4c-.55 0-1-.45-1-1s.45-1 1-1h4c.55 0 1 .45 1 1s-.45 1-1 1z" fill="#79cbca"/><path d="m19.99 62c-.26 0-.51-.1-.71-.29-.39-.39-.39-1.02 0-1.41l7.07-7.07c.39-.39 1.02-.39 1.41 0s.39 1.02 0 1.41l-7.07 7.07c-.2.2-.45.29-.71.29z" fill="#416594"/><path d="m32.26 51.56-2.83-2.83c-.39-.39-1.02-.39-1.41 0l-1.66 1.66c-.56.56-.88 1.32-.88 2.12s.31 1.56.88 2.12c.58.58 1.35.88 2.12.88s1.54-.29 2.12-.88l1.66-1.66c.39-.39.39-1.02 0-1.41z" fill="#517eb9"/><path d="m56.05 34.84-16.97 16.97c-1.37 1.36-3.16 2.04-4.95 2.04s-3.59-.68-4.95-2.04c-2.73-2.73-2.73-7.17 0-9.9l1.42-1.41 1.41-1.42 3.54-3.53 1.41-1.42 3.54-3.53 1.41-1.42 4.24-4.24c.39-.39 1.02-.39 1.41 0l8.49 8.48c.39.39.39 1.03 0 1.42z" fill="#dceaf1"/><path d="m59.59 25.64-4.24-4.24c-.39-.39-1.02-.39-1.41 0l-5.66 5.66c-.39.39-.39 1.02 0 1.41l4.24 4.24c.2.2.45.29.71.29s.51-.1.71-.29l5.66-5.66c.39-.39.39-1.02 0-1.41z" fill="#416594"/><g fill="#517eb9"><path d="m57.46 37.25c-.26 0-.51-.1-.71-.29l-12.73-12.73c-.39-.39-.39-1.02 0-1.41s1.02-.39 1.41 0l12.73 12.73c.39.39.39 1.02 0 1.41-.2.2-.45.29-.71.29z"/><path d="m61 29.47c-.26 0-.51-.1-.71-.29l-8.49-8.49c-.39-.39-.39-1.02 0-1.41s1.02-.39 1.41 0l8.49 8.49c.39.39.39 1.02 0 1.41-.2.2-.45.29-.71.29z"/><path d="m45.44 34.13c-.19.2-.45.29-.7.29s-.52-.09-.71-.29l-3.53-3.53 1.41-1.42 3.53 3.54c.39.39.39 1.02 0 1.41z"/><path d="m40.49 39.08c-.19.19-.45.29-.7.29s-.52-.1-.71-.29l-3.53-3.53 1.41-1.42 3.53 3.54c.39.39.39 1.02 0 1.41z"/><path d="m35.54 44.03c-.19.19-.45.29-.7.29s-.51-.1-.71-.29l-3.53-3.53 1.41-1.42 3.53 3.54c.39.39.39 1.02 0 1.41z"/></g><path d="m35 7h-4.08c-.48-2.83-2.95-5-5.92-5s-5.44 2.17-5.92 5h-4.08c-1.1 0-2 .9-2 2v8c0 1.1.9 2 2 2h20c1.1 0 2-.9 2-2v-8c0-1.1-.9-2-2-2z" fill="#79cbca"/></svg>