<svg width="140" height="60" viewBox="0 0 140 60" fill="none" xmlns="http://www.w3.org/2000/svg">
<path d="M20.1192 28.2848V31.0302V31.3316V38.4202H23.1624V31.3316V31.0302V28.2848H20.1192Z" fill="#6764F0"/>
<path d="M40.0669 28.2848H29.9423V31.0302V31.3316V38.4202H32.9855V31.3316H40.0669V28.2848Z" fill="#1F2A52"/>
<path d="M27.2115 21.0073V21.1562C27.2115 23.8834 26.0494 25.8771 23.7543 27.0864C22.0294 27.9943 20.279 28.0959 20.2608 28.0959L20.1192 28.1032V31.1391H20.2681C30.1276 31.1428 30.2438 21.2579 30.2438 21.1562V21.0073H27.2115Z" fill="#F1D046"/>
<path d="M17.319 21.0073V21.1562C17.319 23.8834 16.1569 25.8771 13.8618 27.0864C12.1368 27.9979 10.3865 28.0996 10.3683 28.0996L10.2267 28.1068V31.1428H10.3756C20.2387 31.1428 20.3512 21.2579 20.3512 21.1562V21.0073H17.319Z" fill="#53B1CD"/>
<path d="M60.3416 34.125C59.3793 33.4781 58.2755 32.8191 57.0342 32.1398H60.4831C60.6651 32.1398 60.8147 31.9902 60.8147 31.8082V30.3163C60.8147 30.1344 60.6651 29.9848 60.4831 29.9848H56.6461V28.6909H60.7985C60.9804 28.6909 61.13 28.5413 61.13 28.3594V26.8674C61.13 26.6855 60.9804 26.5359 60.7985 26.5359H59.2297C58.9992 26.5359 58.8456 26.3054 58.9265 26.0911C59.1933 25.3916 59.4359 24.6639 59.6502 23.9078H60.4629C60.6004 23.9078 60.7136 23.7946 60.7136 23.6571V22.1288C60.7136 21.9468 60.564 21.7972 60.382 21.7972H56.7391V20.4589C56.7391 20.374 56.6703 20.3053 56.5854 20.3053H54.1029C54.018 20.3053 53.9492 20.374 53.9492 20.4589V21.8013H50.5003C50.3184 21.8013 50.1688 21.9509 50.1688 22.1328V23.738C50.1688 23.835 50.2497 23.9159 50.3467 23.9159H51.3009C51.4586 23.9159 51.6001 24.0291 51.6284 24.1827C51.7578 24.8337 51.875 25.4887 51.9761 26.1558C52.0085 26.358 51.8508 26.5399 51.6446 26.5399H49.9869C49.8049 26.5399 49.6553 26.6895 49.6553 26.8715V28.3634C49.6553 28.5454 49.8049 28.695 49.9869 28.695H54.0422V29.9888H50.3993C50.2173 29.9888 50.0677 30.1384 50.0677 30.3203V31.8123C50.0677 31.9942 50.2173 32.1438 50.3993 32.1438H53.3427C52.9546 32.6614 52.5018 33.1708 51.9842 33.6601C51.1473 34.4404 50.3427 35.055 49.5825 35.4957C49.4168 35.5927 49.3642 35.803 49.4734 35.9606L50.4518 37.3798C50.5489 37.5254 50.7429 37.5699 50.8925 37.4809C51.7214 36.9836 52.6837 36.1871 53.7754 35.0873C53.8724 34.9903 53.9614 34.8973 54.0422 34.8002V38.9405C54.0422 39.1225 54.1918 39.2721 54.3738 39.2721H56.3064C56.4884 39.2721 56.638 39.1225 56.638 38.9405V35.0509C56.638 34.7719 56.9614 34.6102 57.1798 34.7841C57.6973 35.1884 58.2108 35.621 58.7162 36.0739C58.8537 36.1952 59.0639 36.1871 59.1812 36.0456L60.3942 34.6143C60.5235 34.4647 60.4952 34.2342 60.3295 34.121L60.3416 34.125ZM56.2215 26.3297C56.173 26.4591 56.0477 26.5399 55.9062 26.5399H54.8751C54.7215 26.5399 54.584 26.4267 54.5517 26.2771C54.4061 25.6019 54.2565 24.9469 54.1029 24.3161C54.0503 24.1099 54.208 23.9159 54.4223 23.9159H56.5976C56.824 23.9159 56.9857 24.1382 56.917 24.3566C56.7027 25.0318 56.4682 25.6868 56.2175 26.3297H56.2215Z" fill="#1F2A52"/>
<path d="M71.4686 26.6208H65.052C64.87 26.6208 64.7204 26.4712 64.7204 26.2893V23.9806C64.7204 23.8148 64.8498 23.6733 65.0156 23.6531C67.2394 23.3903 69.2165 23.0304 70.947 22.5776C71.1653 22.521 71.2583 22.2582 71.133 22.0722L70.0939 20.5074C70.013 20.3862 69.8715 20.3336 69.734 20.374C67.7771 20.9482 65.2946 21.3889 62.2864 21.6921C62.1166 21.7083 61.9831 21.8498 61.9831 22.0196V26.3984C61.9831 30.474 61.7325 33.2275 61.2311 34.6628C60.8429 35.7706 60.3375 36.7006 59.7189 37.4486C59.5936 37.5982 59.6219 37.8125 59.7796 37.9257L61.4696 39.1063C61.6071 39.2034 61.8052 39.1872 61.9144 39.0578C62.7231 38.1359 63.37 36.9998 63.8471 35.6494C64.3323 34.2504 64.6112 32.0711 64.6881 29.1074C64.6921 28.9295 64.8377 28.7799 65.0156 28.7799H66.7865C66.9685 28.7799 67.1181 28.9295 67.1181 29.1114V38.9527C67.1181 39.1346 67.2677 39.2842 67.4496 39.2842H69.5278C69.7098 39.2842 69.8594 39.1346 69.8594 38.9527V29.1114C69.8594 28.9295 70.009 28.7799 70.1909 28.7799H71.4686C71.6505 28.7799 71.8001 28.6303 71.8001 28.4484V26.9564C71.8001 26.7745 71.6505 26.6249 71.4686 26.6249V26.6208Z" fill="#1F2A52"/>
<path d="M127.354 36.6237C125.805 36.8461 123.941 36.9593 121.762 36.9593C117.771 36.9593 115.256 36.8785 114.221 36.7127C112.923 36.6076 111.771 36.2032 110.768 35.4957C110.684 35.435 110.635 35.338 110.635 35.2329V28.9214C110.635 28.7516 110.498 28.6101 110.324 28.6101H105.492C105.322 28.6101 105.181 28.7475 105.181 28.9214V30.5751C105.181 30.7449 105.318 30.8864 105.492 30.8864H107.514C107.683 30.8864 107.825 31.0239 107.825 31.1977V35.6129C107.825 35.7423 107.744 35.8596 107.623 35.9081C106.855 36.1952 106.062 36.4782 105.245 36.7491C105.031 36.8219 104.958 37.0806 105.104 37.2504C105.573 37.8003 106.03 38.3866 106.475 39.0092C106.576 39.1508 106.778 39.1831 106.915 39.0739C107.708 38.4472 108.5 37.8205 109.289 37.1857C109.398 37.0968 109.551 37.0968 109.665 37.1817C110.704 37.9499 111.763 38.4634 112.847 38.7181C114.432 39.0861 116.538 39.2721 119.174 39.2721H126.448C127.144 39.2721 127.71 38.706 127.71 38.0106V36.9189C127.71 36.7329 127.548 36.5914 127.362 36.6157L127.354 36.6237Z" fill="#1F2A52"/>
<path d="M112.989 35.997H114.49C114.659 35.997 114.801 35.8595 114.801 35.6857V33.0859C114.801 32.916 114.938 32.7745 115.112 32.7745H117.692C117.862 32.7745 118.003 32.912 118.003 33.0859V35.439C118.003 35.6088 118.141 35.7504 118.314 35.7504H120.288C120.457 35.7504 120.599 35.6129 120.599 35.439V33.0859C120.599 32.916 120.736 32.7745 120.91 32.7745H123.898V32.8756C123.898 33.5306 123.745 33.8622 123.437 33.8622C122.855 33.8622 122.232 33.8015 121.561 33.6843C121.347 33.6479 121.157 33.8339 121.201 34.0482L121.521 35.6008C121.549 35.7382 121.666 35.8393 121.808 35.8514C122.418 35.8959 122.964 35.9161 123.437 35.9161C125.507 35.9161 126.542 35.067 126.542 33.3729V24.963C126.542 24.7932 126.405 24.6517 126.231 24.6517H123.55C123.227 24.6517 123.118 24.2191 123.405 24.0654C124.416 23.5277 125.382 22.9333 126.308 22.2823C126.393 22.2217 126.441 22.1247 126.441 22.0236V20.8591C126.441 20.6893 126.304 20.5478 126.13 20.5478H112.763C112.593 20.5478 112.452 20.6853 112.452 20.8591V22.3106C112.452 22.4805 112.589 22.622 112.763 22.622H116.212L115.29 23.1436C115.116 23.2446 115.108 23.4913 115.278 23.6045C115.783 23.9401 116.256 24.2918 116.701 24.6557H112.48C112.31 24.6557 112.169 24.7932 112.169 24.9671V35.1681C112.169 35.625 112.541 35.997 112.998 35.997H112.989ZM123.894 30.8055H120.599V29.7583H123.894V30.8055ZM123.894 26.8067V27.7933H120.599V26.8067H123.894ZM122.006 22.622C121.133 23.1153 120.178 23.5721 119.147 23.9967C118.63 23.5196 118.08 23.0586 117.498 22.622H122.006ZM114.805 26.8067H118.007V27.7933H114.805V26.8067ZM114.805 29.7623H118.007V30.8095H114.805V29.7623Z" fill="#1F2A52"/>
<path d="M107.959 23.6248C108.902 23.6248 109.666 22.8609 109.666 21.9185C109.666 20.9762 108.902 20.2123 107.959 20.2123C107.017 20.2123 106.253 20.9762 106.253 21.9185C106.253 22.8609 107.017 23.6248 107.959 23.6248Z" fill="#1F2A52"/>
<path d="M107.891 27.6599C108.796 27.6599 109.528 26.924 109.528 26.0224C109.528 25.1207 108.792 24.3848 107.891 24.3848C106.989 24.3848 106.253 25.1207 106.253 26.0224C106.253 26.924 106.989 27.6599 107.891 27.6599Z" fill="#1F2A52"/>
<path d="M87.7751 23.3943H82.4865C82.2803 23.3943 82.1469 23.1881 82.2156 22.994C82.717 21.6355 82.7332 20.5115 82.7332 20.4791V20.2972C82.7332 20.2042 82.6563 20.1314 82.5634 20.1314H79.9999C79.9069 20.1314 79.8301 20.2042 79.8301 20.2972V20.4791C79.8301 22.2986 78.973 23.6247 77.2829 24.4293C76.0012 25.0399 74.6912 25.1086 74.679 25.1126L74.485 25.1207H74.4769C74.3839 25.1207 74.3111 25.1935 74.3111 25.2865V27.5709C74.3111 27.6639 74.3879 27.7407 74.4809 27.7407H74.6992C77.4446 27.7407 79.2398 26.8755 80.4326 25.7474C80.4851 25.6949 80.5498 25.6706 80.6226 25.6706H81.9569V39.0982C81.9569 39.2599 82.0862 39.3893 82.248 39.3893H84.4677C84.6294 39.3893 84.7588 39.2599 84.7588 39.0982V25.9617C84.7588 25.8 84.8882 25.6706 85.0499 25.6706H87.7751C87.9328 25.6706 88.0662 25.5412 88.0662 25.3795V23.6854C88.0662 23.5237 87.9328 23.3943 87.7751 23.3943Z" fill="#1F2A52"/>
<path d="M100.043 23.3943H93.6583C93.4764 23.3943 93.3429 23.2204 93.3793 23.0425C93.5734 22.1005 93.6745 21.2473 93.723 20.5721C93.7351 20.4023 93.5977 20.2689 93.4319 20.2689H91.0019C90.8523 20.2689 90.727 20.3781 90.7148 20.5277C90.5693 22.2703 90.0679 25.052 88.4304 27.2758C88.2889 27.4699 88.4142 27.7408 88.6568 27.7408H91.5073C91.6165 27.7408 91.7176 27.6801 91.7701 27.5871C92.0815 27.013 92.3443 26.4308 92.5666 25.8566C92.6111 25.7475 92.7122 25.6747 92.8335 25.6747H94.1435C94.3052 25.6747 94.4346 25.8041 94.4346 25.9658V35.6251C94.4346 36.1184 94.3699 36.4863 94.2406 36.7329C94.1112 36.923 93.8201 37.02 93.3672 37.02C92.4656 37.02 91.5558 36.8987 90.6421 36.6561C90.4318 36.5995 90.2377 36.7734 90.2822 36.9877L90.6421 38.7909C90.6623 38.9001 90.7472 38.9891 90.8523 39.0214C91.7701 39.2761 92.7486 39.4015 93.7796 39.4015C95.1382 39.4015 96.0762 39.1548 96.5937 38.6616C97.0466 38.2249 97.273 37.396 97.273 36.179V25.9618C97.273 25.8 97.4024 25.6706 97.5641 25.6706H100.043C100.172 25.6706 100.277 25.5655 100.277 25.4361V23.6329C100.277 23.5035 100.172 23.3983 100.043 23.3983V23.3943Z" fill="#1F2A52"/>
<path d="M20.1192 28.2848V31.0302V31.3316V38.4202H23.1624V31.3316V31.0302V28.2848H20.1192Z" fill="#6764F0"/>
<path d="M40.0669 28.2848H29.9423V31.0302V31.3316V38.4202H32.9855V31.3316H40.0669V28.2848Z" fill="#1F2A52"/>
<path d="M27.2115 21.0073V21.1562C27.2115 23.8834 26.0494 25.8771 23.7543 27.0864C22.0294 27.9943 20.279 28.0959 20.2608 28.0959L20.1192 28.1032V31.1391H20.2681C30.1276 31.1428 30.2438 21.2579 30.2438 21.1562V21.0073H27.2115Z" fill="#F1D046"/>
<path d="M17.319 21.0073V21.1562C17.319 23.8834 16.1569 25.8771 13.8618 27.0864C12.1368 27.9979 10.3865 28.0996 10.3683 28.0996L10.2267 28.1068V31.1428H10.3756C20.2387 31.1428 20.3512 21.2579 20.3512 21.1562V21.0073H17.319Z" fill="#53B1CD"/>
<path d="M60.3416 34.125C59.3793 33.4781 58.2755 32.8191 57.0342 32.1398H60.4831C60.6651 32.1398 60.8147 31.9902 60.8147 31.8082V30.3163C60.8147 30.1344 60.6651 29.9848 60.4831 29.9848H56.6461V28.6909H60.7985C60.9804 28.6909 61.13 28.5413 61.13 28.3594V26.8674C61.13 26.6855 60.9804 26.5359 60.7985 26.5359H59.2297C58.9992 26.5359 58.8456 26.3054 58.9265 26.0911C59.1933 25.3916 59.4359 24.6639 59.6502 23.9078H60.4629C60.6004 23.9078 60.7136 23.7946 60.7136 23.6571V22.1288C60.7136 21.9468 60.564 21.7972 60.382 21.7972H56.7391V20.4589C56.7391 20.374 56.6703 20.3053 56.5854 20.3053H54.1029C54.018 20.3053 53.9492 20.374 53.9492 20.4589V21.8013H50.5003C50.3184 21.8013 50.1688 21.9509 50.1688 22.1328V23.738C50.1688 23.835 50.2497 23.9159 50.3467 23.9159H51.3009C51.4586 23.9159 51.6001 24.0291 51.6284 24.1827C51.7578 24.8337 51.875 25.4887 51.9761 26.1558C52.0085 26.358 51.8508 26.5399 51.6446 26.5399H49.9869C49.8049 26.5399 49.6553 26.6895 49.6553 26.8715V28.3634C49.6553 28.5454 49.8049 28.695 49.9869 28.695H54.0422V29.9888H50.3993C50.2173 29.9888 50.0677 30.1384 50.0677 30.3203V31.8123C50.0677 31.9942 50.2173 32.1438 50.3993 32.1438H53.3427C52.9546 32.6614 52.5018 33.1708 51.9842 33.6601C51.1473 34.4404 50.3427 35.055 49.5825 35.4957C49.4168 35.5927 49.3642 35.803 49.4734 35.9606L50.4518 37.3798C50.5489 37.5254 50.7429 37.5699 50.8925 37.4809C51.7214 36.9836 52.6837 36.1871 53.7754 35.0873C53.8724 34.9903 53.9614 34.8973 54.0422 34.8002V38.9405C54.0422 39.1225 54.1918 39.2721 54.3738 39.2721H56.3064C56.4884 39.2721 56.638 39.1225 56.638 38.9405V35.0509C56.638 34.7719 56.9614 34.6102 57.1798 34.7841C57.6973 35.1884 58.2108 35.621 58.7162 36.0739C58.8537 36.1952 59.0639 36.1871 59.1812 36.0456L60.3942 34.6143C60.5235 34.4647 60.4952 34.2342 60.3295 34.121L60.3416 34.125ZM56.2215 26.3297C56.173 26.4591 56.0477 26.5399 55.9062 26.5399H54.8751C54.7215 26.5399 54.584 26.4267 54.5517 26.2771C54.4061 25.6019 54.2565 24.9469 54.1029 24.3161C54.0503 24.1099 54.208 23.9159 54.4223 23.9159H56.5976C56.824 23.9159 56.9857 24.1382 56.917 24.3566C56.7027 25.0318 56.4682 25.6868 56.2175 26.3297H56.2215Z" fill="#1F2A52"/>
<path d="M71.4686 26.6208H65.052C64.87 26.6208 64.7204 26.4712 64.7204 26.2893V23.9806C64.7204 23.8148 64.8498 23.6733 65.0156 23.6531C67.2394 23.3903 69.2165 23.0304 70.947 22.5776C71.1653 22.521 71.2583 22.2582 71.133 22.0722L70.0939 20.5074C70.013 20.3862 69.8715 20.3336 69.734 20.374C67.7771 20.9482 65.2946 21.3889 62.2864 21.6921C62.1166 21.7083 61.9831 21.8498 61.9831 22.0196V26.3984C61.9831 30.474 61.7325 33.2275 61.2311 34.6628C60.8429 35.7706 60.3375 36.7006 59.7189 37.4486C59.5936 37.5982 59.6219 37.8125 59.7796 37.9257L61.4696 39.1063C61.6071 39.2034 61.8052 39.1872 61.9144 39.0578C62.7231 38.1359 63.37 36.9998 63.8471 35.6494C64.3323 34.2504 64.6112 32.0711 64.6881 29.1074C64.6921 28.9295 64.8377 28.7799 65.0156 28.7799H66.7865C66.9685 28.7799 67.1181 28.9295 67.1181 29.1114V38.9527C67.1181 39.1346 67.2677 39.2842 67.4496 39.2842H69.5278C69.7098 39.2842 69.8594 39.1346 69.8594 38.9527V29.1114C69.8594 28.9295 70.009 28.7799 70.1909 28.7799H71.4686C71.6505 28.7799 71.8001 28.6303 71.8001 28.4484V26.9564C71.8001 26.7745 71.6505 26.6249 71.4686 26.6249V26.6208Z" fill="#1F2A52"/>
<path d="M127.354 36.6237C125.805 36.8461 123.941 36.9593 121.762 36.9593C117.771 36.9593 115.256 36.8785 114.221 36.7127C112.923 36.6076 111.771 36.2032 110.768 35.4957C110.684 35.435 110.635 35.338 110.635 35.2329V28.9214C110.635 28.7516 110.498 28.6101 110.324 28.6101H105.492C105.322 28.6101 105.181 28.7475 105.181 28.9214V30.5751C105.181 30.7449 105.318 30.8864 105.492 30.8864H107.514C107.683 30.8864 107.825 31.0239 107.825 31.1977V35.6129C107.825 35.7423 107.744 35.8596 107.623 35.9081C106.855 36.1952 106.062 36.4782 105.245 36.7491C105.031 36.8219 104.958 37.0806 105.104 37.2504C105.573 37.8003 106.03 38.3866 106.475 39.0092C106.576 39.1508 106.778 39.1831 106.915 39.0739C107.708 38.4472 108.5 37.8205 109.289 37.1857C109.398 37.0968 109.551 37.0968 109.665 37.1817C110.704 37.9499 111.763 38.4634 112.847 38.7181C114.432 39.0861 116.538 39.2721 119.174 39.2721H126.448C127.144 39.2721 127.71 38.706 127.71 38.0106V36.9189C127.71 36.7329 127.548 36.5914 127.362 36.6157L127.354 36.6237Z" fill="#1F2A52"/>
<path d="M112.989 35.997H114.49C114.659 35.997 114.801 35.8595 114.801 35.6857V33.0859C114.801 32.916 114.938 32.7745 115.112 32.7745H117.692C117.862 32.7745 118.003 32.912 118.003 33.0859V35.439C118.003 35.6088 118.141 35.7504 118.314 35.7504H120.288C120.457 35.7504 120.599 35.6129 120.599 35.439V33.0859C120.599 32.916 120.736 32.7745 120.91 32.7745H123.898V32.8756C123.898 33.5306 123.745 33.8622 123.437 33.8622C122.855 33.8622 122.232 33.8015 121.561 33.6843C121.347 33.6479 121.157 33.8339 121.201 34.0482L121.521 35.6008C121.549 35.7382 121.666 35.8393 121.808 35.8514C122.418 35.8959 122.964 35.9161 123.437 35.9161C125.507 35.9161 126.542 35.067 126.542 33.3729V24.963C126.542 24.7932 126.405 24.6517 126.231 24.6517H123.55C123.227 24.6517 123.118 24.2191 123.405 24.0654C124.416 23.5277 125.382 22.9333 126.308 22.2823C126.393 22.2217 126.441 22.1247 126.441 22.0236V20.8591C126.441 20.6893 126.304 20.5478 126.13 20.5478H112.763C112.593 20.5478 112.452 20.6853 112.452 20.8591V22.3106C112.452 22.4805 112.589 22.622 112.763 22.622H116.212L115.29 23.1436C115.116 23.2446 115.108 23.4913 115.278 23.6045C115.783 23.9401 116.256 24.2918 116.701 24.6557H112.48C112.31 24.6557 112.169 24.7932 112.169 24.9671V35.1681C112.169 35.625 112.541 35.997 112.998 35.997H112.989ZM123.894 30.8055H120.599V29.7583H123.894V30.8055ZM123.894 26.8067V27.7933H120.599V26.8067H123.894ZM122.006 22.622C121.133 23.1153 120.178 23.5721 119.147 23.9967C118.63 23.5196 118.08 23.0586 117.498 22.622H122.006ZM114.805 26.8067H118.007V27.7933H114.805V26.8067ZM114.805 29.7623H118.007V30.8095H114.805V29.7623Z" fill="#1F2A52"/>
<path d="M107.959 23.6248C108.902 23.6248 109.666 22.8609 109.666 21.9185C109.666 20.9762 108.902 20.2123 107.959 20.2123C107.017 20.2123 106.253 20.9762 106.253 21.9185C106.253 22.8609 107.017 23.6248 107.959 23.6248Z" fill="#1F2A52"/>
<path d="M107.891 27.6599C108.796 27.6599 109.528 26.924 109.528 26.0224C109.528 25.1207 108.792 24.3848 107.891 24.3848C106.989 24.3848 106.253 25.1207 106.253 26.0224C106.253 26.924 106.989 27.6599 107.891 27.6599Z" fill="#1F2A52"/>
<path d="M87.7751 23.3943H82.4865C82.2803 23.3943 82.1469 23.1881 82.2156 22.994C82.717 21.6355 82.7332 20.5115 82.7332 20.4791V20.2972C82.7332 20.2042 82.6563 20.1314 82.5634 20.1314H79.9999C79.9069 20.1314 79.8301 20.2042 79.8301 20.2972V20.4791C79.8301 22.2986 78.973 23.6247 77.2829 24.4293C76.0012 25.0399 74.6912 25.1086 74.679 25.1126L74.485 25.1207H74.4769C74.3839 25.1207 74.3111 25.1935 74.3111 25.2865V27.5709C74.3111 27.6639 74.3879 27.7407 74.4809 27.7407H74.6992C77.4446 27.7407 79.2398 26.8755 80.4326 25.7474C80.4851 25.6949 80.5498 25.6706 80.6226 25.6706H81.9569V39.0982C81.9569 39.2599 82.0862 39.3893 82.248 39.3893H84.4677C84.6294 39.3893 84.7588 39.2599 84.7588 39.0982V25.9617C84.7588 25.8 84.8882 25.6706 85.0499 25.6706H87.7751C87.9328 25.6706 88.0662 25.5412 88.0662 25.3795V23.6854C88.0662 23.5237 87.9328 23.3943 87.7751 23.3943Z" fill="#1F2A52"/>
<path d="M100.043 23.3943H93.6583C93.4764 23.3943 93.3429 23.2204 93.3793 23.0425C93.5734 22.1005 93.6745 21.2473 93.723 20.5721C93.7351 20.4023 93.5977 20.2689 93.4319 20.2689H91.0019C90.8523 20.2689 90.727 20.3781 90.7148 20.5277C90.5693 22.2703 90.0679 25.052 88.4304 27.2758C88.2889 27.4699 88.4142 27.7408 88.6568 27.7408H91.5073C91.6165 27.7408 91.7176 27.6801 91.7701 27.5871C92.0815 27.013 92.3443 26.4308 92.5666 25.8566C92.6111 25.7475 92.7122 25.6747 92.8335 25.6747H94.1435C94.3052 25.6747 94.4346 25.8041 94.4346 25.9658V35.6251C94.4346 36.1184 94.3699 36.4863 94.2406 36.7329C94.1112 36.923 93.8201 37.02 93.3672 37.02C92.4656 37.02 91.5558 36.8987 90.6421 36.6561C90.4318 36.5995 90.2377 36.7734 90.2822 36.9877L90.6421 38.7909C90.6623 38.9001 90.7472 38.9891 90.8523 39.0214C91.7701 39.2761 92.7486 39.4015 93.7796 39.4015C95.1382 39.4015 96.0762 39.1548 96.5937 38.6616C97.0466 38.2249 97.273 37.396 97.273 36.179V25.9618C97.273 25.8 97.4024 25.6706 97.5641 25.6706H100.043C100.172 25.6706 100.277 25.5655 100.277 25.4361V23.6329C100.277 23.5035 100.172 23.3983 100.043 23.3983V23.3943Z" fill="#1F2A52"/>
</svg>
