<svg width="137" height="36" viewBox="0 0 137 36" fill="none" xmlns="http://www.w3.org/2000/svg">
<path d="M11.5527 16.3086V19.4429V19.787V27.8799H15.027V19.787V19.4429V16.3086H11.5527Z" fill="#6764F0"/>
<path d="M34.3264 16.3086H22.7675V19.4429V19.787V27.8799H26.2418V19.787H34.3264V16.3086Z" fill="#1F2A52"/>
<path d="M19.6497 8V8.16998C19.6497 11.2836 18.323 13.5597 15.7028 14.9403C13.7335 15.9768 11.7352 16.0929 11.7144 16.0929L11.5527 16.1012V19.5672H11.7227C22.9789 19.5713 23.1116 8.28607 23.1116 8.16998V8H19.6497Z" fill="#F1D046"/>
<path d="M8.3558 8V8.16998C8.3558 11.2836 7.0291 13.5597 4.40887 14.9403C2.43955 15.9809 0.44121 16.097 0.420481 16.097L0.258789 16.1053V19.5713H0.428772C11.6891 19.5713 11.8177 8.28607 11.8177 8.16998V8H8.3558Z" fill="#53B1CD"/>
<path d="M57.4733 22.9758C56.3747 22.2372 55.1145 21.4848 53.6974 20.7093H57.6349C57.8426 20.7093 58.0134 20.5385 58.0134 20.3308V18.6275C58.0134 18.4198 57.8426 18.249 57.6349 18.249H53.2542V16.7719H57.9949C58.2026 16.7719 58.3734 16.6011 58.3734 16.3934V14.69C58.3734 14.4823 58.2026 14.3115 57.9949 14.3115H56.2039C55.9408 14.3115 55.7654 14.0484 55.8577 13.8038C56.1623 13.0052 56.4393 12.1743 56.684 11.3111H57.6118C57.7687 11.3111 57.898 11.1819 57.898 11.0249V9.28007C57.898 9.07235 57.7272 8.90155 57.5195 8.90155H53.3604V7.37365C53.3604 7.27671 53.2819 7.19824 53.185 7.19824H50.3508C50.2538 7.19824 50.1754 7.27671 50.1754 7.37365V8.90617H46.2379C46.0302 8.90617 45.8594 9.07696 45.8594 9.28468V11.1172C45.8594 11.228 45.9517 11.3204 46.0625 11.3204H47.1519C47.3319 11.3204 47.4934 11.4496 47.5257 11.625C47.6735 12.3682 47.8073 13.116 47.9227 13.8776C47.9597 14.1084 47.7796 14.3162 47.5442 14.3162H45.6516C45.4439 14.3162 45.2731 14.4869 45.2731 14.6947V16.398C45.2731 16.6057 45.4439 16.7765 45.6516 16.7765H50.2815V18.2536H46.1225C45.9148 18.2536 45.744 18.4244 45.744 18.6321V20.3354C45.744 20.5432 45.9148 20.714 46.1225 20.714H49.4829C49.0398 21.3048 48.5228 21.8864 47.932 22.445C46.9764 23.3359 46.0579 24.0375 45.19 24.5406C45.0008 24.6514 44.9408 24.8915 45.0654 25.0715L46.1825 26.6917C46.2933 26.8579 46.5148 26.9087 46.6856 26.8071C47.6319 26.2393 48.7305 25.33 49.9769 24.0744C50.0876 23.9636 50.1892 23.8575 50.2815 23.7467V28.4735C50.2815 28.6812 50.4523 28.852 50.66 28.852H52.8665C53.0742 28.852 53.245 28.6812 53.245 28.4735V24.0329C53.245 23.7144 53.6143 23.5297 53.8636 23.7282C54.4544 24.1898 55.0407 24.6837 55.6177 25.2007C55.7746 25.3392 56.0146 25.33 56.1485 25.1684L57.5333 23.5343C57.681 23.3636 57.6487 23.1004 57.4594 22.9712L57.4733 22.9758ZM52.7696 14.0761C52.7142 14.2238 52.5711 14.3162 52.4095 14.3162H51.2324C51.057 14.3162 50.9001 14.1869 50.8631 14.0161C50.697 13.2452 50.5262 12.4974 50.3508 11.7773C50.2908 11.5419 50.4708 11.3204 50.7154 11.3204H53.1989C53.4574 11.3204 53.642 11.5742 53.5635 11.8235C53.3189 12.5944 53.0511 13.3422 52.7649 14.0761H52.7696Z" fill="#1F2A52"/>
<path d="M70.1766 14.4088H62.8509C62.6432 14.4088 62.4724 14.238 62.4724 14.0303V11.3946C62.4724 11.2053 62.6201 11.0437 62.8094 11.0207C65.3482 10.7206 67.6054 10.3098 69.5811 9.7928C69.8304 9.72818 69.9365 9.42814 69.7934 9.2158L68.6071 7.4294C68.5148 7.29092 68.3532 7.23091 68.1963 7.27707C65.9621 7.93254 63.1279 8.43569 59.6936 8.78189C59.4997 8.80036 59.3474 8.96192 59.3474 9.15579V14.1549C59.3474 18.8079 59.0612 21.9514 58.4888 23.5901C58.0456 24.8549 57.4686 25.9166 56.7624 26.7705C56.6193 26.9413 56.6516 27.186 56.8316 27.3152L58.7611 28.6631C58.9181 28.7739 59.1443 28.7554 59.2689 28.6077C60.1921 27.5553 60.9307 26.2582 61.4754 24.7164C62.0293 23.1193 62.3478 20.6312 62.4355 17.2477C62.4401 17.0446 62.6063 16.8738 62.8094 16.8738H64.8312C65.0389 16.8738 65.2097 17.0446 65.2097 17.2523V28.4877C65.2097 28.6954 65.3805 28.8662 65.5882 28.8662H67.9609C68.1686 28.8662 68.3394 28.6954 68.3394 28.4877V17.2523C68.3394 17.0446 68.5102 16.8738 68.7179 16.8738H70.1766C70.3843 16.8738 70.5551 16.703 70.5551 16.4953V14.792C70.5551 14.5842 70.3843 14.4134 70.1766 14.4134V14.4088Z" fill="#1F2A52"/>
<path d="M133.979 25.8286C132.211 26.0825 130.083 26.2118 127.595 26.2118C123.039 26.2118 120.168 26.1195 118.986 25.9302C117.504 25.8102 116.189 25.3486 115.044 24.5408C114.947 24.4715 114.892 24.3608 114.892 24.2407V17.0351C114.892 16.8412 114.735 16.6797 114.536 16.6797H109.02C108.826 16.6797 108.665 16.8366 108.665 17.0351V18.9231C108.665 19.1169 108.822 19.2785 109.02 19.2785H111.328C111.522 19.2785 111.683 19.4355 111.683 19.6339V24.6746C111.683 24.8224 111.591 24.9562 111.453 25.0116C110.576 25.3393 109.671 25.6625 108.738 25.9717C108.494 26.0548 108.411 26.3503 108.577 26.5441C109.112 27.1719 109.634 27.8412 110.142 28.5521C110.257 28.7137 110.488 28.7506 110.645 28.626C111.55 27.9105 112.454 27.195 113.354 26.4703C113.479 26.3687 113.655 26.3687 113.784 26.4657C114.97 27.3427 116.18 27.9289 117.417 28.2197C119.226 28.6398 121.631 28.8521 124.641 28.8521H132.945C133.739 28.8521 134.385 28.2059 134.385 27.4119V26.1656C134.385 25.9533 134.2 25.7917 133.988 25.8194L133.979 25.8286Z" fill="#1F2A52"/>
<path d="M117.58 25.1134H119.292C119.486 25.1134 119.648 24.9565 119.648 24.758V21.7899C119.648 21.596 119.805 21.4344 120.003 21.4344H122.948C123.142 21.4344 123.304 21.5914 123.304 21.7899V24.4764C123.304 24.6703 123.46 24.8318 123.659 24.8318H125.912C126.105 24.8318 126.267 24.6749 126.267 24.4764V21.7899C126.267 21.596 126.424 21.4344 126.622 21.4344H130.034V21.5498C130.034 22.2976 129.858 22.6762 129.507 22.6762C128.843 22.6762 128.132 22.6069 127.366 22.473C127.121 22.4315 126.904 22.6438 126.955 22.8885L127.319 24.661C127.352 24.818 127.486 24.9334 127.647 24.9472C128.344 24.998 128.967 25.0211 129.507 25.0211C131.871 25.0211 133.053 24.0517 133.053 22.1176V12.5163C133.053 12.3224 132.896 12.1608 132.697 12.1608H129.637C129.267 12.1608 129.143 11.6669 129.471 11.4915C130.625 10.8776 131.728 10.199 132.785 9.45586C132.882 9.38662 132.937 9.27584 132.937 9.16043V7.83102C132.937 7.63715 132.78 7.47559 132.582 7.47559H117.321C117.127 7.47559 116.966 7.63253 116.966 7.83102V9.48817C116.966 9.68204 117.123 9.84361 117.321 9.84361H121.259L120.206 10.4391C120.008 10.5545 119.998 10.8361 120.192 10.9653C120.769 11.3484 121.309 11.75 121.817 12.1655H116.998C116.804 12.1655 116.643 12.3224 116.643 12.5209V24.1671C116.643 24.6887 117.067 25.1134 117.589 25.1134H117.58ZM130.029 19.1864H126.267V17.9909H130.029V19.1864ZM130.029 14.6212V15.7475H126.267V14.6212H130.029ZM127.873 9.84361C126.876 10.4068 125.787 10.9284 124.61 11.4131C124.019 10.8684 123.391 10.3421 122.727 9.84361H127.873ZM119.652 14.6212H123.308V15.7475H119.652V14.6212ZM119.652 17.9955H123.308V19.1911H119.652V17.9955Z" fill="#1F2A52"/>
<path d="M111.837 10.9887C112.913 10.9887 113.785 10.1166 113.785 9.04074C113.785 7.96491 112.913 7.09277 111.837 7.09277C110.761 7.09277 109.889 7.96491 109.889 9.04074C109.889 10.1166 110.761 10.9887 111.837 10.9887Z" fill="#1F2A52"/>
<path d="M111.758 15.5954C112.792 15.5954 113.628 14.7553 113.628 13.7259C113.628 12.6966 112.788 11.8564 111.758 11.8564C110.729 11.8564 109.889 12.6966 109.889 13.7259C109.889 14.7553 110.729 15.5954 111.758 15.5954Z" fill="#1F2A52"/>
<path d="M88.7932 10.7251H82.7554C82.52 10.7251 82.3677 10.4897 82.4462 10.2681C83.0185 8.71716 83.037 7.43391 83.037 7.39698V7.18926C83.037 7.08309 82.9493 7 82.8431 7H79.9166C79.8104 7 79.7227 7.08309 79.7227 7.18926V7.39698C79.7227 9.47419 78.7441 10.9882 76.8146 11.9068C75.3513 12.6039 73.8557 12.6823 73.8419 12.6869L73.6203 12.6962H73.6111C73.5049 12.6962 73.4218 12.7793 73.4218 12.8854V15.4935C73.4218 15.5997 73.5095 15.6874 73.6157 15.6874H73.865C76.9992 15.6874 79.0488 14.6995 80.4105 13.4117C80.4705 13.3516 80.5444 13.324 80.6274 13.324H82.1507V28.6538C82.1507 28.8384 82.2984 28.9861 82.4831 28.9861H85.0173C85.2019 28.9861 85.3496 28.8384 85.3496 28.6538V13.6563C85.3496 13.4717 85.4974 13.324 85.682 13.324H88.7932C88.9732 13.324 89.1256 13.1762 89.1256 12.9916V11.0575C89.1256 10.8728 88.9732 10.7251 88.7932 10.7251Z" fill="#1F2A52"/>
<path d="M102.799 10.7254H95.5099C95.3022 10.7254 95.1499 10.5269 95.1914 10.3238C95.413 9.24829 95.5284 8.2743 95.5838 7.50343C95.5976 7.30956 95.4407 7.15723 95.2514 7.15723H92.4772C92.3064 7.15723 92.1633 7.28186 92.1494 7.45265C91.9833 9.44216 91.4109 12.618 89.5414 15.1568C89.3798 15.3784 89.5229 15.6876 89.7999 15.6876H93.0542C93.1788 15.6876 93.2942 15.6184 93.3542 15.5122C93.7097 14.8568 94.0097 14.192 94.2636 13.5366C94.3144 13.4119 94.4297 13.3289 94.5682 13.3289H96.0638C96.2485 13.3289 96.3962 13.4766 96.3962 13.6612V24.6889C96.3962 25.252 96.3223 25.6721 96.1746 25.9537C96.0269 26.1706 95.6945 26.2814 95.1775 26.2814C94.1482 26.2814 93.1096 26.1429 92.0663 25.866C91.8263 25.8013 91.6047 25.9998 91.6555 26.2445L92.0663 28.3032C92.0894 28.4279 92.1864 28.5294 92.3064 28.5663C93.3542 28.8572 94.4713 29.0002 95.6484 29.0002C97.1994 29.0002 98.2703 28.7187 98.8611 28.1555C99.3781 27.657 99.6366 26.7107 99.6366 25.3213V13.6566C99.6366 13.4719 99.7844 13.3242 99.969 13.3242H102.799C102.946 13.3242 103.066 13.2042 103.066 13.0565V10.9978C103.066 10.85 102.946 10.73 102.799 10.73V10.7254Z" fill="#1F2A52"/>
</svg>
