<?xml version="1.0" encoding="utf-8"?>
<svg version="1.1" xmlns="http://www.w3.org/2000/svg" xmlns:xlink="http://www.w3.org/1999/xlink" x="0px" y="0px"
	 viewBox="0 0 227 72" style="enable-background:new 0 0 227 72;" xml:space="preserve">
<style type="text/css">
	.st0{fill:#71696C;}
	.st1{fill:#983A1B;}
</style>
<g>
	<g>
		<g>
			<path class="st0" d="M160.2,28.2H158v2.7h-10.2v2.2H158v3.1h-8.2v12.3h2.2V38.4h6V51h2.2V38.4h6.3V46c0,0.1,0,0.2-0.3,0.2h-3v2.2
				h3l0,0c1.8-0.1,2.5-1.5,2.5-2.4v-9.9h-8.5v-3.1h10v-2.2h-10V28.2z"/>
			<path class="st0" d="M136.6,28.2h-2.3c0,0.1-1.1,5.4-3.7,8.7l1.7,1.4c1-1.1,1.7-2.5,2.3-3.8h3.2v14.1c0,0.1,0,0.2-0.3,0.2h-3.3
				v2.2h3.3l0,0c1.8-0.1,2.5-1.5,2.5-2.4V34.4h2.1v-2.2h-6.7C136.2,30,136.5,28.3,136.6,28.2z"/>
			<path class="st0" d="M130.7,34.4v-2.2h-6.2c0.8-2.1,1.1-3.9,1.1-4h-2.3c0,0.1-1.1,5.4-3.7,8.7l1.7,1.4c1-1.1,1.7-2.5,2.3-3.8h1.3
				v16.4h2.2V34.4H130.7z"/>
			<path class="st0" d="M186.7,44.5c-1,0.8-2.1,1.4-3.3,1.8v-6h3v-2.2h-3v-5h3.4v-2.2h-10.3v2.2h4.8v14c-0.7,0.2-1.3,0.3-1.9,0.4
				V36.3h-2.2v11.5c-0.7,0.1-1.1,0.1-1.2,0.1v2.2c0.3,0,6.7,0,11.4-3.6L186.7,44.5z"/>
			<path class="st0" d="M193.8,45.4c0.8-1.4,1.5-3,2-4.8c0.7-2.6,0.9-5.1,0.9-6.4h1.7V32h-7.7c0.5-2,0.5-3.6,0.5-3.8h-2.2
				c0,0-0.1,4.5-2.1,6.7l1.3,1.9c0.7-0.8,1.3-1.7,1.7-2.6h4.6c0,1.2-0.2,3.5-0.8,5.9c-0.3,1.2-0.8,2.3-1.3,3.3
				c-0.2-0.3-0.3-0.7-0.5-1c-0.9-2.3-1-4.2-1-4.2l-1.1,0h-1.1c0,0.1,0,2.3,1.1,5c0.3,0.7,0.7,1.5,1.2,2.4c-1.4,1.8-3.1,3.1-5.1,3.7
				l1.4,1.9c2-0.7,3.7-2,5.1-3.6c1.2,1.4,2.8,2.7,4.9,3.6l1.3-1.9C196.8,48.2,195.1,47,193.8,45.4z"/>
			<path class="st0" d="M224.3,34.4h-2.2v1.8h-6.2v2.2h6.2v10.1c0,0.1,0,0.2-0.3,0.2h-3.5v2.2h3.6l0,0c1.8-0.1,2.5-1.5,2.5-2.4V38.4
				h2.4v-2.2h-2.4V34.4z"/>
			<path class="st0" d="M217.7,30.7v-2.5h-2.2v2.5h-9.6v7.1c0,2.5,0.1,9.1-1.7,11.4l1.9,1.7c2-3.1,2-12.1,2-13.1v-4.9h18.6v-2.2
				H217.7z"/>
			<path class="st0" d="M212.3,34.4c0,0-0.2,4.2-3.5,7.3l1.2,1.9c0.6-0.6,1.2-1.2,1.6-1.8v9.1h2.2V37.6h0c0.6-1.8,0.7-3.2,0.7-3.3
				H212.3z"/>
			<path class="st0" d="M220.4,45.1l-1.9-3.2c0-0.1-0.1-0.3-0.1-0.7v-0.8h-2.2v0.8c0,0.9,0.3,1.6,0.4,1.7l2,3.3L220.4,45.1z"/>
			<path class="st0" d="M106.4,32.4c1.9-0.2,4.7-0.6,7.2-1.6l-0.8-2.1c-3.7,1.4-8.6,1.6-8.6,1.6l0,0.6l0,6.5c0,2.5-0.2,9.1-2.1,11.8
				l1.7,1.6c2.5-3.5,2.6-11.7,2.6-13.2h2.6v13.3h2.2V37.6h2.7v-2.2h-7.5V32.4z"/>
			<path class="st0" d="M102.5,46.7c-1.4-2.3-2.3-3.7-2.4-3.8l-1.6,0.9v-1.6h4.3V40h-4.3v-2h4.3v-2.2h-1.9l0.6-3.2h1.4v-2.2h-4.4
				v-2.3h-2.2v2.3h-4.4v2.2h1.5l0.6,3.2h-2.1V38h4.4v2h-5.1v2.2h4.3c-0.3,0.6-1.4,3-4.1,4.8l0.9,2.1c1.7-1.2,3.1-2.6,4-4.1v5.9h2.2
				v-6.4c0.4,0.6,1.2,1.8,2.1,3.3L102.5,46.7z M95.7,32.6h3.5l-0.6,3.2h-2.4L95.7,32.6z M96.3,42.2L96.3,42.2L96.3,42.2L96.3,42.2z"
				/>
		</g>
		<g>
			<path class="st0" d="M93.7,64.5h-1.4v-7.5h1.4V60h2.9v-2.9H98v7.5h-1.4v-3.2h-2.9V64.5z"/>
			<path class="st0" d="M102.2,64.7c-0.6,0-1.1-0.1-1.5-0.3c-0.4-0.2-0.8-0.4-1-0.7l0.9-0.9c0.2,0.2,0.5,0.4,0.7,0.5
				c0.3,0.1,0.5,0.2,0.9,0.2c0.3,0,0.5-0.1,0.7-0.2c0.2-0.1,0.3-0.2,0.3-0.4c0-0.2-0.1-0.3-0.3-0.4c-0.2-0.1-0.5-0.1-0.9-0.2
				c-0.7-0.1-1.2-0.2-1.5-0.5c-0.3-0.3-0.5-0.7-0.5-1.2c0-0.5,0.2-1,0.6-1.3c0.4-0.3,0.9-0.5,1.7-0.5c0.5,0,0.9,0.1,1.3,0.2
				c0.4,0.1,0.7,0.3,1,0.6l-0.8,0.9c-0.2-0.2-0.4-0.3-0.6-0.4c-0.2-0.1-0.5-0.1-0.8-0.1c-0.3,0-0.5,0-0.7,0.1
				c-0.1,0.1-0.2,0.2-0.2,0.4c0,0.2,0.1,0.3,0.3,0.4c0.2,0.1,0.5,0.1,0.9,0.2c0.7,0.1,1.2,0.3,1.5,0.6c0.3,0.3,0.5,0.6,0.5,1.1
				c0,0.5-0.2,1-0.6,1.3C103.5,64.5,102.9,64.7,102.2,64.7z"/>
			<path class="st0" d="M107.5,58.4h-1.4V57h1.4V58.4z M107.5,64.5h-1.3v-5.4h1.3V64.5z"/>
			<path class="st0" d="M110.9,64.5h-1.3v-5.4h1.3v0.5c0.1-0.2,0.3-0.3,0.6-0.5c0.2-0.1,0.5-0.2,0.9-0.2c0.5,0,1,0.2,1.3,0.5
				c0.3,0.3,0.5,0.8,0.5,1.4v3.7h-1.3V61c0-0.3-0.1-0.5-0.2-0.7c-0.1-0.2-0.3-0.2-0.6-0.2c-0.2,0-0.4,0.1-0.6,0.2
				c-0.2,0.1-0.4,0.3-0.4,0.4V64.5z"/>
			<path class="st0" d="M118.2,64.7c-0.7,0-1.3-0.2-1.8-0.6c-0.4-0.4-0.6-1-0.6-1.8v-1c0-0.7,0.2-1.2,0.6-1.7c0.4-0.4,1-0.6,1.7-0.6
				c0.6,0,1.1,0.1,1.5,0.4c0.4,0.3,0.6,0.6,0.7,1l-1.2,0.5c-0.1-0.3-0.2-0.5-0.4-0.6c-0.2-0.1-0.3-0.2-0.6-0.2
				c-0.3,0-0.6,0.1-0.8,0.3c-0.2,0.2-0.3,0.6-0.3,1V62c0,0.5,0.1,0.9,0.3,1.1c0.2,0.2,0.4,0.3,0.8,0.3c0.3,0,0.5-0.1,0.6-0.2
				c0.2-0.1,0.3-0.3,0.4-0.6l1.2,0.5c-0.1,0.4-0.3,0.8-0.7,1.1C119.3,64.5,118.8,64.7,118.2,64.7z"/>
			<path class="st0" d="M123.3,64.5H122v-7.5h1.3v2.5c0.1-0.2,0.3-0.3,0.5-0.4c0.2-0.1,0.5-0.2,0.9-0.2c0.5,0,1,0.2,1.3,0.5
				c0.3,0.3,0.5,0.8,0.5,1.4v3.7h-1.3V61c0-0.3-0.1-0.5-0.2-0.7c-0.1-0.2-0.3-0.2-0.6-0.2c-0.3,0-0.5,0.1-0.7,0.2
				c-0.2,0.1-0.3,0.3-0.4,0.4V64.5z"/>
			<path class="st0" d="M133.1,59.1v5.4h-1.3V64c-0.2,0.2-0.4,0.4-0.6,0.5c-0.2,0.1-0.5,0.2-0.7,0.2c-0.6,0-1-0.2-1.4-0.5
				c-0.3-0.3-0.5-0.8-0.5-1.4v-3.7h1.3v3.5c0,0.3,0.1,0.6,0.2,0.7c0.2,0.1,0.3,0.2,0.6,0.2c0.2,0,0.5-0.1,0.6-0.2
				c0.2-0.1,0.3-0.3,0.5-0.5v-3.8H133.1z"/>
			<path class="st0" d="M141.2,64.7c-1,0-1.7-0.3-2.2-0.8c-0.5-0.5-0.8-1.2-0.8-2.1v-2c0-0.8,0.3-1.5,0.8-2.1
				c0.5-0.5,1.2-0.8,2.1-0.8c0.8,0,1.5,0.2,2,0.7c0.5,0.5,0.8,1.1,0.8,1.9h-1.4c0-0.4-0.1-0.7-0.4-0.9c-0.2-0.3-0.6-0.4-1.1-0.4
				c-0.5,0-0.9,0.1-1.1,0.4c-0.3,0.3-0.4,0.7-0.4,1.1v2c0,0.6,0.1,1,0.4,1.2c0.3,0.2,0.7,0.4,1.1,0.4c0.5,0,0.8-0.1,1-0.3
				c0.2-0.2,0.4-0.6,0.4-1.1h1.4c0,0.9-0.3,1.6-0.8,2C142.7,64.4,142.1,64.7,141.2,64.7z"/>
			<path class="st0" d="M147.2,58.4h-1.4V57h1.4V58.4z M147.1,64.5h-1.3v-5.4h1.3V64.5z"/>
			<path class="st0" d="M150.7,64.5c-0.4,0-0.7-0.1-0.9-0.4c-0.2-0.2-0.3-0.6-0.3-1v-2.9h-0.7v-1.2h0.7v-1.4h1.3v1.4h1v1.2h-1v2.6
				c0,0.1,0,0.3,0.1,0.4c0.1,0.1,0.2,0.1,0.3,0.1h0.6v1.2H150.7z"/>
			<path class="st0" d="M154.7,63.7l-2.1-4.6h1.4l1.2,3.1l1.1-3.1h1.4l-2,5.4c-0.2,0.4-0.4,0.7-0.6,0.9c-0.2,0.2-0.6,0.3-1.1,0.3
				h-0.9v-1.2h0.8c0.1,0,0.3,0,0.3-0.1c0.1-0.1,0.2-0.2,0.2-0.3L154.7,63.7z"/>
			<path class="st0" d="M165.2,64.7c-1,0-1.7-0.3-2.3-0.8c-0.5-0.5-0.8-1.2-0.8-2.1v-2c0-0.8,0.3-1.5,0.8-2c0.5-0.5,1.2-0.8,2.2-0.8
				c0.8,0,1.5,0.2,2,0.7c0.5,0.5,0.8,1.1,0.8,1.9h-1.4c0-0.3-0.1-0.6-0.4-0.9c-0.2-0.3-0.6-0.4-1.1-0.4c-0.5,0-0.9,0.1-1.2,0.4
				c-0.3,0.3-0.4,0.7-0.4,1.1v2c0,0.6,0.1,1,0.4,1.2c0.3,0.3,0.7,0.4,1.2,0.4c0.5,0,0.8-0.1,1.1-0.4c0.2-0.2,0.4-0.6,0.4-1v-0.3
				h-1.5v-1.3h2.8v1.5c0,0.9-0.3,1.5-0.8,2C166.7,64.4,166.1,64.7,165.2,64.7z"/>
			<path class="st0" d="M169.5,62.3v-1.1c0-0.7,0.2-1.2,0.6-1.6c0.4-0.4,1-0.6,1.7-0.6c0.7,0,1.3,0.2,1.7,0.6c0.4,0.4,0.6,1,0.6,1.6
				v1.1c0,0.7-0.2,1.2-0.6,1.7c-0.4,0.4-1,0.7-1.7,0.7c-0.7,0-1.3-0.2-1.7-0.6C169.7,63.6,169.5,63.1,169.5,62.3z M171.9,60.1
				c-0.3,0-0.6,0.1-0.8,0.3c-0.2,0.2-0.2,0.6-0.2,1.1V62c0,0.5,0.1,0.9,0.2,1.1c0.2,0.2,0.4,0.3,0.8,0.3c0.4,0,0.6-0.1,0.8-0.3
				c0.2-0.2,0.2-0.6,0.2-1.1v-0.4c0-0.5-0.1-0.9-0.2-1.1C172.5,60.2,172.2,60.1,171.9,60.1z"/>
			<path class="st0" d="M177.3,64.5l-2-5.4h1.4l1.2,3.8l1.2-3.8h1.4l-2,5.4H177.3z"/>
			<path class="st0" d="M184.1,64.7c-0.8,0-1.4-0.2-1.8-0.6c-0.4-0.4-0.6-1-0.6-1.8v-0.9c0-0.8,0.2-1.3,0.6-1.8
				c0.4-0.4,1-0.6,1.7-0.6c0.7,0,1.3,0.2,1.7,0.6c0.4,0.4,0.7,1,0.7,1.8v1h-3.4c0,0.4,0.1,0.7,0.3,0.9c0.2,0.2,0.5,0.3,0.9,0.3
				c0.3,0,0.5-0.1,0.7-0.2c0.2-0.1,0.3-0.3,0.4-0.5l1.2,0.5c-0.1,0.3-0.3,0.6-0.7,0.9C185.3,64.5,184.8,64.7,184.1,64.7z M184,60.1
				c-0.3,0-0.6,0.1-0.8,0.3c-0.2,0.2-0.2,0.5-0.3,0.9h2.1c0-0.4-0.1-0.7-0.3-0.9C184.6,60.2,184.3,60.1,184,60.1z"/>
			<path class="st0" d="M189.4,64.5h-1.3v-5.4h1.3v0.5c0.1-0.2,0.3-0.3,0.5-0.5c0.3-0.1,0.5-0.2,0.9-0.2c0.3,0,0.6,0.1,0.8,0.2
				c0.2,0.1,0.4,0.3,0.5,0.4l-0.8,1c-0.1-0.1-0.2-0.2-0.3-0.3c-0.1-0.1-0.3-0.1-0.5-0.1c-0.2,0-0.5,0.1-0.6,0.2
				c-0.2,0.1-0.3,0.3-0.4,0.5V64.5z"/>
			<path class="st0" d="M194.7,64.5h-1.3v-5.4h1.3v0.5c0.1-0.2,0.3-0.3,0.6-0.5c0.2-0.1,0.5-0.2,0.9-0.2c0.5,0,1,0.2,1.3,0.5
				c0.3,0.3,0.5,0.8,0.5,1.4v3.7h-1.3V61c0-0.3-0.1-0.5-0.2-0.7c-0.1-0.2-0.3-0.2-0.6-0.2c-0.2,0-0.4,0.1-0.6,0.2
				c-0.2,0.1-0.4,0.3-0.4,0.4V64.5z"/>
			<path class="st0" d="M201.3,64.5H200v-5.4h1.3v0.5c0.1-0.2,0.3-0.4,0.6-0.5c0.3-0.1,0.5-0.2,0.9-0.2c0.4,0,0.7,0.1,1,0.2
				c0.3,0.2,0.4,0.4,0.6,0.6c0.1-0.2,0.4-0.4,0.7-0.6c0.3-0.2,0.6-0.3,1-0.3c0.6,0,1,0.2,1.4,0.5c0.3,0.4,0.5,0.8,0.5,1.4v3.7h-1.3
				V61c0-0.3-0.1-0.5-0.2-0.7c-0.1-0.2-0.3-0.2-0.6-0.2c-0.3,0-0.5,0-0.7,0.1c-0.2,0.1-0.3,0.2-0.5,0.4v3.8h-1.3V61
				c0-0.3-0.1-0.5-0.2-0.6c-0.1-0.2-0.3-0.2-0.6-0.2c-0.2,0-0.5,0.1-0.7,0.2c-0.2,0.1-0.3,0.3-0.4,0.4V64.5z"/>
			<path class="st0" d="M212,64.7c-0.8,0-1.4-0.2-1.8-0.6c-0.4-0.4-0.6-1-0.6-1.8v-0.9c0-0.8,0.2-1.3,0.6-1.8c0.4-0.4,1-0.6,1.7-0.6
				c0.7,0,1.3,0.2,1.7,0.6c0.4,0.4,0.7,1,0.7,1.8v1h-3.4c0,0.4,0.1,0.7,0.3,0.9c0.2,0.2,0.5,0.3,0.9,0.3c0.3,0,0.5-0.1,0.7-0.2
				c0.2-0.1,0.3-0.3,0.4-0.5l1.2,0.5c-0.1,0.3-0.3,0.6-0.7,0.9C213.2,64.5,212.7,64.7,212,64.7z M211.9,60.1c-0.3,0-0.6,0.1-0.8,0.3
				c-0.2,0.2-0.2,0.5-0.3,0.9h2.1c0-0.4-0.1-0.7-0.3-0.9C212.5,60.2,212.2,60.1,211.9,60.1z"/>
			<path class="st0" d="M217.3,64.5h-1.3v-5.4h1.3v0.5c0.1-0.2,0.3-0.3,0.6-0.5c0.2-0.1,0.5-0.2,0.9-0.2c0.5,0,1,0.2,1.3,0.5
				c0.3,0.3,0.5,0.8,0.5,1.4v3.7h-1.3V61c0-0.3-0.1-0.5-0.2-0.7c-0.1-0.2-0.3-0.2-0.6-0.2c-0.2,0-0.4,0.1-0.6,0.2
				c-0.2,0.1-0.4,0.3-0.4,0.4V64.5z"/>
			<path class="st0" d="M224,64.5c-0.4,0-0.7-0.1-0.9-0.4c-0.2-0.2-0.3-0.6-0.3-1v-2.9H222v-1.2h0.7v-1.4h1.3v1.4h1v1.2h-1v2.6
				c0,0.1,0,0.3,0.1,0.4c0.1,0.1,0.2,0.1,0.3,0.1h0.6v1.2H224z"/>
		</g>
	</g>
	<g>
		<path class="st1" d="M45.2,36.8c-0.4-0.1-0.9-0.1-1.3,0.2l-2.2,1.6c-0.1,0-0.1,0-0.2,0L39.3,37c-0.4-0.3-0.9-0.3-1.3-0.2
			c-4.3,1.4-7.4,5.3-7.8,9.8c0,0.2,0.2,0.4,0.4,0.4h1.3c0.6,0,1-0.4,1.1-1c0.4-2.3,1.7-4.3,3.6-5.7V46c0,0.2,0.2,0.4,0.4,0.4h1.8
			c0.2,0,0.4-0.2,0.4-0.4v-5.8l2.1,1.4c0.2,0.2,0.5,0.2,0.8,0l2.1-1.4V46c0,0.2,0.2,0.4,0.4,0.4h1.8c0.2,0,0.4-0.2,0.4-0.4v-5.6
			c1.9,1.3,3.2,3.3,3.6,5.7c0.1,0.6,0.6,1,1.1,1h1.3c0.2,0,0.4-0.2,0.4-0.4C52.6,42.1,49.5,38.3,45.2,36.8z"/>
		<path class="st1" d="M51.7,50.8c0.5,0,1-0.4,1.1-0.9c0-0.1,0-0.2,0-0.3c0.1-0.3,0.1-0.6,0.1-0.8c0-0.2-0.2-0.4-0.4-0.4h-9.7v-1.2
			c0-0.2-0.2-0.4-0.4-0.4h-1.8c-0.2,0-0.4,0.2-0.4,0.4v1.2h-9.7c-0.2,0-0.4,0.2-0.4,0.4c0,0.2,0,0.4,0.1,0.8c0,0.1,0,0.2,0,0.3
			c0.1,0.5,0.6,0.9,1.1,0.9h8.9v1.5H32c-0.5,0-0.8,0.5-0.5,0.9c1.7,3.1,4.2,4.8,6.9,5.6c0.2,0.1,0.5-0.1,0.5-0.4v-1.2
			c0-0.5-0.3-0.9-0.8-1.1c-0.8-0.3-1.9-0.8-2.6-1.7h4.8v4.2c0,0.2,0.2,0.4,0.4,0.4h1.8c0.2,0,0.4-0.2,0.4-0.4v-4.2h4.7
			c-0.7,0.8-1.7,1.3-2.6,1.7c-0.5,0.2-0.8,0.6-0.8,1.1v1.2c0,0.3,0.2,0.4,0.5,0.4c2.7-0.8,5.2-2.6,6.9-5.6c0.2-0.4-0.1-0.9-0.5-0.9
			h-8.3v-1.5H51.7z"/>
	</g>
	<g>
		<path class="st1" d="M21.8,35.4c0.8,0.7,2,1.5,3,2.1c0,0,0,0,0,0c0,0,0,0,0,0c1,0.6,2.3,1.2,3.3,1.6c0.2,0.1,0.4,0.1,0.6-0.1
			c0.1-0.1,0.2-0.1,0.3-0.1c0.1-0.1,0.1-0.2,0.1-0.3c-0.2-0.3-0.3-0.8,0-1.5c0.2-0.7,0.8-1.2,1-1.4c2.1-2,4.7-3.4,7.5-4.1
			c0.9,1,1.9,1.8,3,2.3c0.2,0.1,0.5,0,0.5-0.3l0.5-19.9c0,0,0-0.1,0.2-0.1c0.1,0,0.2,0.1,0.2,0.1l0.5,19.9c0,0.3,0.3,0.4,0.5,0.3
			c1.1-0.6,2.1-1.3,3-2.4c2.8,0.7,5.3,2.1,7.4,4.1c0.2,0.2,0.7,0.8,1,1.4c0.3,0.7,0.2,1.2,0,1.5c-0.1,0.1,0,0.2,0.1,0.3
			c0.1,0,0.2,0.1,0.3,0.1c0.2,0.1,0.4,0.1,0.6,0.1c1-0.4,2.3-1,3.3-1.6c0,0,0,0,0,0c0,0,0,0,0,0l0,0c1-0.6,2.2-1.4,3-2.1
			c0.2-0.1,0.3-0.4,0.3-0.6c0-0.1,0-0.2,0-0.3c0-0.1-0.1-0.2-0.2-0.2c-0.4,0-1.2-0.1-1.9-0.5c-0.9-0.6-1.5-1.2-1.5-1.2l0,0
			c-2.8-3.1-6.4-5.2-10.3-6.3c0-0.4,0.1-0.8,0.1-1.3c0-6.6-4.3-19.9-5.8-24.4c-0.2-0.5-0.9-0.5-1,0C39.6,5,35.3,18.3,35.3,25
			c0,0.5,0,0.9,0.1,1.3c-3.9,1.1-7.5,3.3-10.3,6.4l0,0c0,0-0.6,0.6-1.5,1.2c-0.7,0.4-1.5,0.5-1.9,0.5c-0.1,0-0.2,0.1-0.2,0.2
			c0,0.1,0,0.2,0,0.3C21.5,35.1,21.6,35.3,21.8,35.4z"/>
		<path class="st1" d="M40.5,63.3c-0.1-0.1-0.2-0.1-0.3-0.1c-0.1-0.1-0.2,0-0.3,0.1c-0.2,0.3-0.5,0.6-1.3,0.8
			c-0.7,0.1-1.4,0-1.7-0.1c-2.8-0.8-5.3-2.4-7.3-4.5c0.5-1.3,0.6-2.6,0.5-3.7c0-0.3-0.3-0.4-0.5-0.3l-17.5,9.5c0,0-0.1,0-0.2-0.1
			c-0.1-0.1,0-0.2,0-0.2l17-10.3c0.2-0.1,0.2-0.5,0-0.6c-1-0.6-2.2-1.2-3.6-1.4c-0.8-2.7-0.9-5.7-0.2-8.5c0.1-0.3,0.3-1,0.7-1.5
			c0.5-0.6,0.9-0.7,1.3-0.7c0.1,0,0.2-0.1,0.2-0.2c0-0.1,0-0.2,0-0.3c0-0.2-0.1-0.4-0.3-0.6c-0.8-0.7-2-1.5-3-2.1v0c0,0,0,0,0,0
			c0,0,0,0,0,0l0,0c-1-0.6-2.3-1.2-3.3-1.6c-0.2-0.1-0.4-0.1-0.6,0.1c-0.1,0.1-0.2,0.1-0.3,0.1c-0.1,0.1-0.1,0.2-0.1,0.3
			c0.2,0.3,0.5,1,0.5,1.8c0,1.1-0.3,1.9-0.3,1.9l0,0c-1.3,4-1.3,8.2-0.3,12.1c-0.4,0.2-0.8,0.4-1.1,0.6C13,57,3.6,67.4,0.5,70.9
			c-0.3,0.4,0,1,0.5,0.9c4.6-0.9,18.3-3.9,24-7.2c0.4-0.2,0.8-0.5,1.1-0.7c2.9,2.8,6.6,4.9,10.7,5.8v0c0,0,0.8,0.2,1.8,0.7
			c0.7,0.4,1.2,1.1,1.3,1.4c0.1,0.1,0.2,0.1,0.3,0.1c0.1,0,0.2-0.1,0.3-0.1c0.2-0.1,0.3-0.3,0.4-0.5c0.2-1.1,0.3-2.5,0.3-3.6
			c0,0,0,0,0,0c0,0,0,0,0,0c0-1.1-0.1-2.6-0.3-3.6C40.8,63.6,40.7,63.4,40.5,63.3z"/>
		<path class="st1" d="M82.7,70.9C79.6,67.4,70.2,57,64.5,53.7c-0.4-0.2-0.8-0.4-1.2-0.6c1-3.9,0.9-8.1-0.3-12.1l0,0
			c0,0-0.3-0.8-0.3-1.9c0-0.8,0.3-1.5,0.5-1.8c0.1-0.1,0-0.2-0.1-0.3c-0.1,0-0.2-0.1-0.3-0.1c-0.2-0.1-0.4-0.1-0.6-0.1
			c-1,0.4-2.3,1-3.3,1.6c0,0,0,0,0,0c0,0,0,0,0,0c-1,0.6-2.2,1.4-3,2.1c-0.2,0.1-0.3,0.4-0.3,0.6c0,0.1,0,0.2,0,0.3
			c0,0.1,0.1,0.2,0.2,0.2c0.4,0,0.8,0.1,1.3,0.7c0.5,0.5,0.7,1.3,0.7,1.5c0.7,2.9,0.6,5.8-0.2,8.5c-1.3,0.2-2.5,0.8-3.5,1.4
			c-0.2,0.1-0.2,0.5,0,0.6l17,10.3c0,0,0.1,0.1,0,0.2C71.1,65,71,64.9,71,64.9l-17.5-9.5c-0.2-0.1-0.5,0-0.5,0.3
			c0,1.2,0.1,2.5,0.6,3.8c-2,2-4.5,3.6-7.3,4.4c-0.3,0.1-1,0.2-1.7,0.1c-0.8-0.1-1.1-0.4-1.3-0.8c-0.1-0.1-0.2-0.1-0.3-0.1
			c-0.1,0-0.2,0.1-0.3,0.1c-0.2,0.1-0.3,0.3-0.4,0.5c-0.2,1.1-0.3,2.5-0.3,3.6l0,0c0,0,0,0,0,0c0,0,0,0,0,0l0,0
			c0,1.1,0.1,2.6,0.3,3.6c0,0.2,0.2,0.4,0.4,0.5c0.1,0.1,0.2,0.1,0.3,0.1c0.1,0.1,0.2,0,0.3-0.1c0.2-0.3,0.6-1,1.3-1.4
			c1-0.5,1.8-0.7,1.8-0.7v0c4.1-0.9,7.7-2.9,10.6-5.7c0.3,0.2,0.7,0.5,1.1,0.7c5.8,3.3,19.4,6.3,24,7.2
			C82.7,71.9,83.1,71.3,82.7,70.9z"/>
	</g>
</g>
</svg>
